<svg id="Layer_2" data-name="Layer 2" xmlns="http://www.w3.org/2000/svg" viewBox="0 0 50 20"><defs><style>.cls-1,.cls-2{fill:#fff;}.cls-1{opacity:0.36;}.cls-3{fill:none;stroke:#fff;stroke-linecap:round;stroke-miterlimit:10;}</style></defs><rect class="cls-1" x="0.56" y="3.61" width="48.88" height="12.78" rx="6.25"/><path class="cls-2" d="M8.44,7.94l-.67.74A1.83,1.83,0,0,0,7,8.37a.42.42,0,0,0-.31.13.49.49,0,0,0-.13.33c0,.24.23.46.68.64A5.42,5.42,0,0,1,8,9.85,1.39,1.39,0,0,1,8.57,11a1.48,1.48,0,0,1-.52,1.13,1.8,1.8,0,0,1-1.23.47,2.22,2.22,0,0,1-1.54-.73L6,11a1.32,1.32,0,0,0,.89.49.57.57,0,0,0,.38-.17A.52.52,0,0,0,7.44,11c0-.26-.28-.49-.83-.69A2.68,2.68,0,0,1,5.93,10a1.11,1.11,0,0,1-.33-.44,1.38,1.38,0,0,1-.14-.59A1.45,1.45,0,0,1,5.9,7.83,1.57,1.57,0,0,1,7,7.42,2,2,0,0,1,8.44,7.94Z"/><path class="cls-2" d="M10.21,7.48h1.08v5H10.21Z"/><path class="cls-2" d="M17.48,8.58l-.72.67a1.49,1.49,0,0,0-.56-.58,1.34,1.34,0,0,0-.69-.2,1.38,1.38,0,0,0-1,.45A1.46,1.46,0,0,0,14.05,10a1.52,1.52,0,0,0,.43,1.1,1.41,1.41,0,0,0,1,.45,1.33,1.33,0,0,0,.64-.17,1.18,1.18,0,0,0,.5-.63H15.48v-1H17.8v.65a2.11,2.11,0,0,1-.35,1.07,2.07,2.07,0,0,1-.91.85,2.55,2.55,0,0,1-1.13.26,2.34,2.34,0,0,1-1.76-.75A2.6,2.6,0,0,1,12.94,10a2.48,2.48,0,0,1,.73-1.8,2.39,2.39,0,0,1,1.78-.74A2.23,2.23,0,0,1,17.48,8.58Z"/><path class="cls-2" d="M22.84,7.48H23.9v5H22.84l-2.3-3.26v3.26H19.46v-5h1.07l2.31,3.24Z"/><path class="cls-2" d="M27.85,7.48h1.08v5H27.85Z"/><path class="cls-2" d="M34.17,7.48h1.06v5h-1l-2.3-3.26v3.26H30.8v-5h1.07l2.3,3.24Z"/><polyline class="cls-3" points="41.99 7.54 44.45 10 41.99 12.46"/></svg>